<mxfile host="app.diagrams.net" modified="2023-12-24T18:47:37.336Z" agent="Mozilla/5.0 (Macintosh; Intel Mac OS X 10_15_7) AppleWebKit/537.36 (KHTML, like Gecko) Chrome/116.0.0.0 Whale/3.22.205.18 Safari/537.36" etag="q-ctl_2InLHtwV3X3oSu" version="21.5.2" type="github">
  <diagram name="페이지-1" id="Xa38Sybxr32NkZHonVsy">
    <mxGraphModel dx="3362" dy="1332" grid="1" gridSize="10" guides="1" tooltips="1" connect="1" arrows="1" fold="1" page="1" pageScale="1" pageWidth="1169" pageHeight="827" math="0" shadow="0">
      <root>
        <mxCell id="0" />
        <mxCell id="1" parent="0" />
        <mxCell id="pZGgupdEHR9cw1bb7QeQ-54" value="" style="rounded=1;whiteSpace=wrap;html=1;fillColor=none;opacity=20;" vertex="1" parent="1">
          <mxGeometry x="-2090" y="30" width="140" height="680" as="geometry" />
        </mxCell>
        <mxCell id="PRsRDHQmLPShGL4FB_sg-12" value="" style="endArrow=classic;html=1;rounded=0;" parent="1" edge="1">
          <mxGeometry width="50" height="50" relative="1" as="geometry">
            <mxPoint x="-2000" y="140" as="sourcePoint" />
            <mxPoint x="-2040" y="150" as="targetPoint" />
          </mxGeometry>
        </mxCell>
        <mxCell id="PRsRDHQmLPShGL4FB_sg-14" value="" style="endArrow=classic;html=1;rounded=0;" parent="1" edge="1">
          <mxGeometry width="50" height="50" relative="1" as="geometry">
            <mxPoint x="-2160" y="90" as="sourcePoint" />
            <mxPoint x="-2040" y="130" as="targetPoint" />
          </mxGeometry>
        </mxCell>
        <mxCell id="PRsRDHQmLPShGL4FB_sg-30" value="1" style="ellipse;whiteSpace=wrap;html=1;aspect=fixed;fillColor=#f5f5f5;fontColor=#333333;strokeColor=#666666;" parent="1" vertex="1">
          <mxGeometry x="-2190" y="80" width="20" height="20" as="geometry" />
        </mxCell>
        <mxCell id="PRsRDHQmLPShGL4FB_sg-46" value="" style="endArrow=none;dashed=1;html=1;rounded=0;fillColor=#f8cecc;strokeColor=#b85450;strokeWidth=2;dashPattern=1 2;" parent="1" edge="1">
          <mxGeometry width="50" height="50" relative="1" as="geometry">
            <mxPoint x="-2200" y="230" as="sourcePoint" />
            <mxPoint x="-1820" y="230" as="targetPoint" />
          </mxGeometry>
        </mxCell>
        <mxCell id="PRsRDHQmLPShGL4FB_sg-63" value="" style="endArrow=none;dashed=1;html=1;rounded=0;strokeWidth=2;dashPattern=1 2;" parent="1" edge="1">
          <mxGeometry width="50" height="50" relative="1" as="geometry">
            <mxPoint x="-2200" y="260" as="sourcePoint" />
            <mxPoint x="-1960" y="260" as="targetPoint" />
          </mxGeometry>
        </mxCell>
        <mxCell id="PRsRDHQmLPShGL4FB_sg-77" value="Process Message" style="text;html=1;strokeColor=none;fillColor=none;align=center;verticalAlign=middle;whiteSpace=wrap;rounded=0;" parent="1" vertex="1">
          <mxGeometry x="-2270" y="190" width="100" height="30" as="geometry" />
        </mxCell>
        <mxCell id="pZGgupdEHR9cw1bb7QeQ-1" value="" style="endArrow=none;html=1;rounded=0;fillColor=#ffe6cc;strokeColor=#d79b00;strokeWidth=4;jumpStyle=none;" edge="1" parent="1">
          <mxGeometry width="50" height="50" relative="1" as="geometry">
            <mxPoint x="-2160" y="700" as="sourcePoint" />
            <mxPoint x="-2160" y="80" as="targetPoint" />
          </mxGeometry>
        </mxCell>
        <mxCell id="pZGgupdEHR9cw1bb7QeQ-2" value="Consumer A" style="text;html=1;strokeColor=none;fillColor=none;align=center;verticalAlign=middle;whiteSpace=wrap;rounded=0;" vertex="1" parent="1">
          <mxGeometry x="-2195" y="50" width="70" height="30" as="geometry" />
        </mxCell>
        <mxCell id="pZGgupdEHR9cw1bb7QeQ-3" value="" style="endArrow=none;html=1;rounded=0;fillColor=#dae8fc;strokeColor=#6c8ebf;strokeWidth=4;" edge="1" parent="1">
          <mxGeometry width="50" height="50" relative="1" as="geometry">
            <mxPoint x="-2040" y="700" as="sourcePoint" />
            <mxPoint x="-2040" y="80" as="targetPoint" />
          </mxGeometry>
        </mxCell>
        <mxCell id="pZGgupdEHR9cw1bb7QeQ-4" value="Kafka Topic" style="text;html=1;strokeColor=none;fillColor=none;align=center;verticalAlign=middle;whiteSpace=wrap;rounded=0;" vertex="1" parent="1">
          <mxGeometry x="-2060" y="30" width="70" height="30" as="geometry" />
        </mxCell>
        <mxCell id="pZGgupdEHR9cw1bb7QeQ-5" value="" style="endArrow=none;html=1;rounded=0;fillColor=#f8cecc;strokeColor=#b85450;strokeWidth=4;" edge="1" parent="1">
          <mxGeometry width="50" height="50" relative="1" as="geometry">
            <mxPoint x="-2000" y="260" as="sourcePoint" />
            <mxPoint x="-2000" y="80" as="targetPoint" />
          </mxGeometry>
        </mxCell>
        <mxCell id="pZGgupdEHR9cw1bb7QeQ-6" value="" style="endArrow=none;html=1;rounded=0;fillColor=#d5e8d4;strokeColor=#82b366;strokeWidth=4;dashed=1;dashPattern=1 2;" edge="1" parent="1">
          <mxGeometry width="50" height="50" relative="1" as="geometry">
            <mxPoint x="-1880" y="440" as="sourcePoint" />
            <mxPoint x="-1880" y="80" as="targetPoint" />
          </mxGeometry>
        </mxCell>
        <mxCell id="pZGgupdEHR9cw1bb7QeQ-7" value="Partition 1" style="text;html=1;strokeColor=none;fillColor=none;align=center;verticalAlign=middle;whiteSpace=wrap;rounded=0;" vertex="1" parent="1">
          <mxGeometry x="-2090" y="50" width="70" height="30" as="geometry" />
        </mxCell>
        <mxCell id="pZGgupdEHR9cw1bb7QeQ-8" value="Partition 2" style="text;html=1;strokeColor=none;fillColor=none;align=center;verticalAlign=middle;whiteSpace=wrap;rounded=0;" vertex="1" parent="1">
          <mxGeometry x="-2020" y="50" width="70" height="30" as="geometry" />
        </mxCell>
        <mxCell id="pZGgupdEHR9cw1bb7QeQ-9" value="Consumer B" style="text;html=1;strokeColor=none;fillColor=none;align=center;verticalAlign=middle;whiteSpace=wrap;rounded=0;" vertex="1" parent="1">
          <mxGeometry x="-1910" y="50" width="70" height="30" as="geometry" />
        </mxCell>
        <mxCell id="pZGgupdEHR9cw1bb7QeQ-12" value="" style="endArrow=classic;html=1;rounded=0;" edge="1" parent="1">
          <mxGeometry width="50" height="50" relative="1" as="geometry">
            <mxPoint x="-2040" y="130" as="sourcePoint" />
            <mxPoint x="-2000" y="140" as="targetPoint" />
          </mxGeometry>
        </mxCell>
        <mxCell id="pZGgupdEHR9cw1bb7QeQ-13" value="" style="endArrow=classic;html=1;rounded=0;" edge="1" parent="1">
          <mxGeometry width="50" height="50" relative="1" as="geometry">
            <mxPoint x="-2040" y="150" as="sourcePoint" />
            <mxPoint x="-2160" y="190" as="targetPoint" />
          </mxGeometry>
        </mxCell>
        <mxCell id="pZGgupdEHR9cw1bb7QeQ-14" value="&lt;font style=&quot;font-size: 9px;&quot;&gt;Poll&lt;/font&gt;" style="text;html=1;strokeColor=none;fillColor=none;align=center;verticalAlign=middle;whiteSpace=wrap;rounded=0;" vertex="1" parent="1">
          <mxGeometry x="-2125" y="90" width="60" height="30" as="geometry" />
        </mxCell>
        <mxCell id="pZGgupdEHR9cw1bb7QeQ-15" value="" style="endArrow=classic;html=1;rounded=0;" edge="1" parent="1">
          <mxGeometry width="50" height="50" relative="1" as="geometry">
            <mxPoint x="-2170" y="190" as="sourcePoint" />
            <mxPoint x="-2170" y="260" as="targetPoint" />
          </mxGeometry>
        </mxCell>
        <mxCell id="pZGgupdEHR9cw1bb7QeQ-16" value="Rebalance Trigger" style="text;html=1;strokeColor=none;fillColor=none;align=center;verticalAlign=middle;whiteSpace=wrap;rounded=0;" vertex="1" parent="1">
          <mxGeometry x="-1840" y="220" width="100" height="30" as="geometry" />
        </mxCell>
        <mxCell id="pZGgupdEHR9cw1bb7QeQ-17" value="Processing Paused&lt;br&gt;(Partition 2)" style="text;html=1;strokeColor=none;fillColor=none;align=center;verticalAlign=middle;whiteSpace=wrap;rounded=0;" vertex="1" parent="1">
          <mxGeometry x="-1960" y="250" width="100" height="30" as="geometry" />
        </mxCell>
        <mxCell id="pZGgupdEHR9cw1bb7QeQ-18" value="" style="endArrow=classic;html=1;rounded=0;" edge="1" parent="1">
          <mxGeometry width="50" height="50" relative="1" as="geometry">
            <mxPoint x="-2160" y="260" as="sourcePoint" />
            <mxPoint x="-2040" y="300" as="targetPoint" />
          </mxGeometry>
        </mxCell>
        <mxCell id="pZGgupdEHR9cw1bb7QeQ-19" value="" style="endArrow=classic;html=1;rounded=0;" edge="1" parent="1">
          <mxGeometry width="50" height="50" relative="1" as="geometry">
            <mxPoint x="-2040" y="300" as="sourcePoint" />
            <mxPoint x="-2160" y="340" as="targetPoint" />
          </mxGeometry>
        </mxCell>
        <mxCell id="pZGgupdEHR9cw1bb7QeQ-20" value="&lt;font style=&quot;font-size: 9px;&quot;&gt;Poll&lt;/font&gt;" style="text;html=1;strokeColor=none;fillColor=none;align=center;verticalAlign=middle;whiteSpace=wrap;rounded=0;" vertex="1" parent="1">
          <mxGeometry x="-2125" y="260" width="60" height="30" as="geometry" />
        </mxCell>
        <mxCell id="pZGgupdEHR9cw1bb7QeQ-21" value="2" style="ellipse;whiteSpace=wrap;html=1;aspect=fixed;fillColor=#f5f5f5;fontColor=#333333;strokeColor=#666666;" vertex="1" parent="1">
          <mxGeometry x="-1870" y="80" width="20" height="20" as="geometry" />
        </mxCell>
        <mxCell id="pZGgupdEHR9cw1bb7QeQ-22" value="New Consumer Join" style="text;html=1;strokeColor=none;fillColor=none;align=center;verticalAlign=middle;whiteSpace=wrap;rounded=0;" vertex="1" parent="1">
          <mxGeometry x="-1853" y="80" width="100" height="30" as="geometry" />
        </mxCell>
        <mxCell id="pZGgupdEHR9cw1bb7QeQ-23" value="3" style="ellipse;whiteSpace=wrap;html=1;aspect=fixed;fillColor=#f5f5f5;fontColor=#333333;strokeColor=#666666;" vertex="1" parent="1">
          <mxGeometry x="-1960" y="250" width="20" height="20" as="geometry" />
        </mxCell>
        <mxCell id="pZGgupdEHR9cw1bb7QeQ-26" value="Process Message" style="text;html=1;strokeColor=none;fillColor=none;align=center;verticalAlign=middle;whiteSpace=wrap;rounded=0;" vertex="1" parent="1">
          <mxGeometry x="-2270" y="340" width="100" height="30" as="geometry" />
        </mxCell>
        <mxCell id="pZGgupdEHR9cw1bb7QeQ-27" value="" style="endArrow=classic;html=1;rounded=0;" edge="1" parent="1">
          <mxGeometry width="50" height="50" relative="1" as="geometry">
            <mxPoint x="-2170" y="340" as="sourcePoint" />
            <mxPoint x="-2170" y="410" as="targetPoint" />
          </mxGeometry>
        </mxCell>
        <mxCell id="pZGgupdEHR9cw1bb7QeQ-28" value="" style="endArrow=none;dashed=1;html=1;rounded=0;fillColor=#f8cecc;strokeColor=#b85450;strokeWidth=2;dashPattern=1 2;" edge="1" parent="1">
          <mxGeometry width="50" height="50" relative="1" as="geometry">
            <mxPoint x="-2200" y="380" as="sourcePoint" />
            <mxPoint x="-1820" y="380" as="targetPoint" />
          </mxGeometry>
        </mxCell>
        <mxCell id="pZGgupdEHR9cw1bb7QeQ-29" value="Synchronization&lt;br&gt;Barrier" style="text;html=1;strokeColor=none;fillColor=none;align=center;verticalAlign=middle;whiteSpace=wrap;rounded=0;" vertex="1" parent="1">
          <mxGeometry x="-1830" y="370" width="100" height="30" as="geometry" />
        </mxCell>
        <mxCell id="pZGgupdEHR9cw1bb7QeQ-30" value="" style="endArrow=classic;html=1;rounded=0;" edge="1" parent="1">
          <mxGeometry width="50" height="50" relative="1" as="geometry">
            <mxPoint x="-2160" y="410" as="sourcePoint" />
            <mxPoint x="-2040" y="450" as="targetPoint" />
          </mxGeometry>
        </mxCell>
        <mxCell id="pZGgupdEHR9cw1bb7QeQ-31" value="&lt;font style=&quot;font-size: 9px;&quot;&gt;Poll&lt;/font&gt;" style="text;html=1;strokeColor=none;fillColor=none;align=center;verticalAlign=middle;whiteSpace=wrap;rounded=0;" vertex="1" parent="1">
          <mxGeometry x="-2125" y="410" width="60" height="30" as="geometry" />
        </mxCell>
        <mxCell id="pZGgupdEHR9cw1bb7QeQ-32" value="" style="endArrow=classic;html=1;rounded=0;" edge="1" parent="1">
          <mxGeometry width="50" height="50" relative="1" as="geometry">
            <mxPoint x="-2040" y="450" as="sourcePoint" />
            <mxPoint x="-2160" y="490" as="targetPoint" />
          </mxGeometry>
        </mxCell>
        <mxCell id="pZGgupdEHR9cw1bb7QeQ-33" value="" style="endArrow=none;dashed=1;html=1;rounded=0;strokeWidth=2;dashPattern=1 2;" edge="1" parent="1">
          <mxGeometry width="50" height="50" relative="1" as="geometry">
            <mxPoint x="-2020" y="480" as="sourcePoint" />
            <mxPoint x="-1820" y="480" as="targetPoint" />
          </mxGeometry>
        </mxCell>
        <mxCell id="pZGgupdEHR9cw1bb7QeQ-34" value="Processing Resume&lt;br&gt;(Partition 2)" style="text;html=1;strokeColor=none;fillColor=none;align=center;verticalAlign=middle;whiteSpace=wrap;rounded=0;" vertex="1" parent="1">
          <mxGeometry x="-1830" y="470" width="100" height="30" as="geometry" />
        </mxCell>
        <mxCell id="pZGgupdEHR9cw1bb7QeQ-35" value="" style="endArrow=classic;html=1;rounded=0;" edge="1" parent="1">
          <mxGeometry width="50" height="50" relative="1" as="geometry">
            <mxPoint x="-1880" y="440" as="sourcePoint" />
            <mxPoint x="-2000" y="480" as="targetPoint" />
          </mxGeometry>
        </mxCell>
        <mxCell id="pZGgupdEHR9cw1bb7QeQ-36" value="&lt;font style=&quot;font-size: 9px;&quot;&gt;Poll&lt;/font&gt;" style="text;html=1;strokeColor=none;fillColor=none;align=center;verticalAlign=middle;whiteSpace=wrap;rounded=0;" vertex="1" parent="1">
          <mxGeometry x="-1960" y="430" width="60" height="30" as="geometry" />
        </mxCell>
        <mxCell id="pZGgupdEHR9cw1bb7QeQ-38" value="" style="endArrow=classic;html=1;rounded=0;" edge="1" parent="1">
          <mxGeometry width="50" height="50" relative="1" as="geometry">
            <mxPoint x="-2000" y="480" as="sourcePoint" />
            <mxPoint x="-1880" y="520" as="targetPoint" />
          </mxGeometry>
        </mxCell>
        <mxCell id="pZGgupdEHR9cw1bb7QeQ-39" value="4" style="ellipse;whiteSpace=wrap;html=1;aspect=fixed;fillColor=#f5f5f5;fontColor=#333333;strokeColor=#666666;" vertex="1" parent="1">
          <mxGeometry x="-1873" y="430" width="20" height="20" as="geometry" />
        </mxCell>
        <mxCell id="pZGgupdEHR9cw1bb7QeQ-40" value="New Consumer begin polling" style="text;html=1;strokeColor=none;fillColor=none;align=center;verticalAlign=middle;whiteSpace=wrap;rounded=0;" vertex="1" parent="1">
          <mxGeometry x="-1860" y="425" width="100" height="30" as="geometry" />
        </mxCell>
        <mxCell id="pZGgupdEHR9cw1bb7QeQ-41" value="Process Message" style="text;html=1;strokeColor=none;fillColor=none;align=center;verticalAlign=middle;whiteSpace=wrap;rounded=0;" vertex="1" parent="1">
          <mxGeometry x="-2270.74" y="640" width="100" height="30" as="geometry" />
        </mxCell>
        <mxCell id="pZGgupdEHR9cw1bb7QeQ-42" value="" style="endArrow=none;html=1;rounded=0;endFill=0;" edge="1" parent="1">
          <mxGeometry width="50" height="50" relative="1" as="geometry">
            <mxPoint x="-2170.74" y="640" as="sourcePoint" />
            <mxPoint x="-2170" y="700" as="targetPoint" />
          </mxGeometry>
        </mxCell>
        <mxCell id="pZGgupdEHR9cw1bb7QeQ-43" value="" style="endArrow=classic;html=1;rounded=0;" edge="1" parent="1">
          <mxGeometry width="50" height="50" relative="1" as="geometry">
            <mxPoint x="-1870" y="520" as="sourcePoint" />
            <mxPoint x="-1870" y="590" as="targetPoint" />
          </mxGeometry>
        </mxCell>
        <mxCell id="pZGgupdEHR9cw1bb7QeQ-44" value="Process Message" style="text;html=1;strokeColor=none;fillColor=none;align=center;verticalAlign=middle;whiteSpace=wrap;rounded=0;" vertex="1" parent="1">
          <mxGeometry x="-1870" y="520" width="100" height="30" as="geometry" />
        </mxCell>
        <mxCell id="pZGgupdEHR9cw1bb7QeQ-45" value="" style="endArrow=classic;html=1;rounded=0;" edge="1" parent="1">
          <mxGeometry width="50" height="50" relative="1" as="geometry">
            <mxPoint x="-2160" y="560" as="sourcePoint" />
            <mxPoint x="-2040" y="600" as="targetPoint" />
          </mxGeometry>
        </mxCell>
        <mxCell id="pZGgupdEHR9cw1bb7QeQ-46" value="" style="endArrow=classic;html=1;rounded=0;" edge="1" parent="1">
          <mxGeometry width="50" height="50" relative="1" as="geometry">
            <mxPoint x="-2040" y="600" as="sourcePoint" />
            <mxPoint x="-2160" y="640" as="targetPoint" />
          </mxGeometry>
        </mxCell>
        <mxCell id="pZGgupdEHR9cw1bb7QeQ-47" value="&lt;font style=&quot;font-size: 9px;&quot;&gt;Poll&lt;/font&gt;" style="text;html=1;strokeColor=none;fillColor=none;align=center;verticalAlign=middle;whiteSpace=wrap;rounded=0;" vertex="1" parent="1">
          <mxGeometry x="-2125" y="560" width="60" height="30" as="geometry" />
        </mxCell>
        <mxCell id="pZGgupdEHR9cw1bb7QeQ-48" value="" style="endArrow=classic;html=1;rounded=0;" edge="1" parent="1">
          <mxGeometry width="50" height="50" relative="1" as="geometry">
            <mxPoint x="-1880" y="590" as="sourcePoint" />
            <mxPoint x="-2000" y="630" as="targetPoint" />
          </mxGeometry>
        </mxCell>
        <mxCell id="pZGgupdEHR9cw1bb7QeQ-49" value="&lt;font style=&quot;font-size: 9px;&quot;&gt;Poll&lt;/font&gt;" style="text;html=1;strokeColor=none;fillColor=none;align=center;verticalAlign=middle;whiteSpace=wrap;rounded=0;" vertex="1" parent="1">
          <mxGeometry x="-1960" y="580" width="60" height="30" as="geometry" />
        </mxCell>
        <mxCell id="pZGgupdEHR9cw1bb7QeQ-50" value="" style="endArrow=classic;html=1;rounded=0;" edge="1" parent="1">
          <mxGeometry width="50" height="50" relative="1" as="geometry">
            <mxPoint x="-2000" y="630" as="sourcePoint" />
            <mxPoint x="-1880" y="670" as="targetPoint" />
          </mxGeometry>
        </mxCell>
        <mxCell id="pZGgupdEHR9cw1bb7QeQ-51" value="" style="endArrow=none;html=1;rounded=0;fillColor=#d5e8d4;strokeColor=#82b366;strokeWidth=4;" edge="1" parent="1">
          <mxGeometry width="50" height="50" relative="1" as="geometry">
            <mxPoint x="-1880" y="700" as="sourcePoint" />
            <mxPoint x="-1880" y="440" as="targetPoint" />
          </mxGeometry>
        </mxCell>
        <mxCell id="pZGgupdEHR9cw1bb7QeQ-52" value="" style="endArrow=none;html=1;rounded=0;fillColor=#f8cecc;strokeColor=#b85450;strokeWidth=4;dashed=1;dashPattern=1 2;" edge="1" parent="1">
          <mxGeometry width="50" height="50" relative="1" as="geometry">
            <mxPoint x="-2000" y="380" as="sourcePoint" />
            <mxPoint x="-2000" y="260" as="targetPoint" />
          </mxGeometry>
        </mxCell>
        <mxCell id="pZGgupdEHR9cw1bb7QeQ-53" value="" style="endArrow=none;html=1;rounded=0;fillColor=#f8cecc;strokeColor=#b85450;strokeWidth=4;" edge="1" parent="1">
          <mxGeometry width="50" height="50" relative="1" as="geometry">
            <mxPoint x="-2000" y="700" as="sourcePoint" />
            <mxPoint x="-2000" y="380" as="targetPoint" />
          </mxGeometry>
        </mxCell>
        <mxCell id="pZGgupdEHR9cw1bb7QeQ-55" style="edgeStyle=orthogonalEdgeStyle;rounded=0;orthogonalLoop=1;jettySize=auto;html=1;exitX=0.5;exitY=1;exitDx=0;exitDy=0;" edge="1" parent="1" source="pZGgupdEHR9cw1bb7QeQ-54" target="pZGgupdEHR9cw1bb7QeQ-54">
          <mxGeometry relative="1" as="geometry" />
        </mxCell>
        <mxCell id="pZGgupdEHR9cw1bb7QeQ-56" value="" style="endArrow=none;html=1;rounded=0;endFill=0;" edge="1" parent="1">
          <mxGeometry width="50" height="50" relative="1" as="geometry">
            <mxPoint x="-1870" y="670" as="sourcePoint" />
            <mxPoint x="-1870" y="700" as="targetPoint" />
          </mxGeometry>
        </mxCell>
        <mxCell id="pZGgupdEHR9cw1bb7QeQ-57" value="Process Message" style="text;html=1;strokeColor=none;fillColor=none;align=center;verticalAlign=middle;whiteSpace=wrap;rounded=0;" vertex="1" parent="1">
          <mxGeometry x="-1870" y="670" width="100" height="30" as="geometry" />
        </mxCell>
      </root>
    </mxGraphModel>
  </diagram>
</mxfile>
